<mxfile host="www.draw.io" modified="2020-03-11T01:53:42.377Z" agent="Mozilla/5.0 (Windows NT 10.0; Win64; x64) AppleWebKit/537.36 (KHTML, like Gecko) Chrome/80.0.3987.132 Safari/537.36" etag="JPrrkzh4qAhMo5mlNhjx" version="12.8.2" type="github">
  <diagram id="HPOrVcMt1QibX2db6pjh" name="Page-1">
    <mxGraphModel dx="981" dy="623" grid="1" gridSize="10" guides="1" tooltips="1" connect="1" arrows="1" fold="1" page="1" pageScale="1" pageWidth="827" pageHeight="1169" math="0" shadow="0">
      <root>
        <mxCell id="0" />
        <mxCell id="1" parent="0" />
        <mxCell id="CVVzsr7ubRktZ-lXM0vy-1" value="Store" style="swimlane;fontStyle=0;childLayout=stackLayout;horizontal=1;startSize=26;fillColor=none;horizontalStack=0;resizeParent=1;resizeParentMax=0;resizeLast=0;collapsible=1;marginBottom=0;" parent="1" vertex="1">
          <mxGeometry x="300" y="360" width="140" height="104" as="geometry">
            <mxRectangle x="300" y="360" width="60" height="26" as="alternateBounds" />
          </mxGeometry>
        </mxCell>
        <mxCell id="CVVzsr7ubRktZ-lXM0vy-2" value="+Â id: number" style="text;strokeColor=none;fillColor=none;align=left;verticalAlign=top;spacingLeft=4;spacingRight=4;overflow=hidden;rotatable=0;points=[[0,0.5],[1,0.5]];portConstraint=eastwest;" parent="CVVzsr7ubRktZ-lXM0vy-1" vertex="1">
          <mxGeometry y="26" width="140" height="26" as="geometry" />
        </mxCell>
        <mxCell id="CVVzsr7ubRktZ-lXM0vy-3" value="+ text: string" style="text;strokeColor=none;fillColor=none;align=left;verticalAlign=top;spacingLeft=4;spacingRight=4;overflow=hidden;rotatable=0;points=[[0,0.5],[1,0.5]];portConstraint=eastwest;" parent="CVVzsr7ubRktZ-lXM0vy-1" vertex="1">
          <mxGeometry y="52" width="140" height="26" as="geometry" />
        </mxCell>
        <mxCell id="CVVzsr7ubRktZ-lXM0vy-4" value="+ call: string" style="text;strokeColor=none;fillColor=none;align=left;verticalAlign=top;spacingLeft=4;spacingRight=4;overflow=hidden;rotatable=0;points=[[0,0.5],[1,0.5]];portConstraint=eastwest;" parent="CVVzsr7ubRktZ-lXM0vy-1" vertex="1">
          <mxGeometry y="78" width="140" height="26" as="geometry" />
        </mxCell>
        <mxCell id="CVVzsr7ubRktZ-lXM0vy-5" value="&lt;p style=&quot;margin: 0px ; margin-top: 6px ; text-align: center&quot;&gt;&lt;span style=&quot;text-align: left&quot;&gt;StoreListPageComponent&lt;/span&gt;&lt;br&gt;&lt;/p&gt;&lt;hr&gt;&lt;p style=&quot;margin: 0px ; margin-left: 8px&quot;&gt;+ Attribute1: Type&lt;br&gt;+ Attribute2: Type&lt;/p&gt;" style="align=left;overflow=fill;html=1;dropTarget=0;" parent="1" vertex="1">
          <mxGeometry x="170" y="690" width="180" height="90" as="geometry" />
        </mxCell>
        <mxCell id="CVVzsr7ubRktZ-lXM0vy-6" value="" style="shape=component;jettyWidth=8;jettyHeight=4;" parent="CVVzsr7ubRktZ-lXM0vy-5" vertex="1">
          <mxGeometry x="1" width="20" height="20" relative="1" as="geometry">
            <mxPoint x="-24" y="4" as="offset" />
          </mxGeometry>
        </mxCell>
        <mxCell id="CVVzsr7ubRktZ-lXM0vy-7" value="&lt;p style=&quot;margin:0px;margin-top:4px;text-align:center;&quot;&gt;&lt;i&gt;&amp;lt;&amp;lt;Interface&amp;gt;&amp;gt;&lt;/i&gt;&lt;br/&gt;&lt;b&gt;Interface&lt;/b&gt;&lt;/p&gt;&lt;hr size=&quot;1&quot;/&gt;&lt;p style=&quot;margin:0px;margin-left:4px;&quot;&gt;+ field1: Type&lt;br/&gt;+ field2: Type&lt;/p&gt;&lt;hr size=&quot;1&quot;/&gt;&lt;p style=&quot;margin:0px;margin-left:4px;&quot;&gt;+ method1(Type): Type&lt;br/&gt;+ method2(Type, Type): Type&lt;/p&gt;" style="verticalAlign=top;align=left;overflow=fill;fontSize=12;fontFamily=Helvetica;html=1;" parent="1" vertex="1">
          <mxGeometry x="310" y="100" width="190" height="140" as="geometry" />
        </mxCell>
        <mxCell id="C2sTeI0eQVbdnZWaE3Ct-3" value="&lt;p style=&quot;margin: 0px ; margin-top: 6px ; text-align: center&quot;&gt;&lt;span style=&quot;text-align: left&quot;&gt;StoreListPageComponent&lt;/span&gt;&lt;br&gt;&lt;/p&gt;&lt;hr&gt;&lt;p style=&quot;margin: 0px ; margin-left: 8px&quot;&gt;+ Attribute1: Type&lt;br&gt;+ Attribute2: Type&lt;/p&gt;" style="align=left;overflow=fill;html=1;dropTarget=0;" vertex="1" parent="1">
          <mxGeometry x="410" y="690" width="180" height="90" as="geometry" />
        </mxCell>
        <mxCell id="C2sTeI0eQVbdnZWaE3Ct-4" value="" style="shape=component;jettyWidth=8;jettyHeight=4;" vertex="1" parent="C2sTeI0eQVbdnZWaE3Ct-3">
          <mxGeometry x="1" width="20" height="20" relative="1" as="geometry">
            <mxPoint x="-24" y="4" as="offset" />
          </mxGeometry>
        </mxCell>
      </root>
    </mxGraphModel>
  </diagram>
</mxfile>
